<svg width="38" height="40" xmlns="http://www.w3.org/2000/svg" xmlns:xlink="http://www.w3.org/1999/xlink"><defs><path id="a" d="M37.902.093v39.819H.202V.092z"/></defs><g fill="none" fill-rule="evenodd"><mask id="b" fill="#fff"><use xlink:href="#a"/></mask><path d="M19.381 6.058c-1.97 0-3.583-1.539-3.677-3.465-3.871.932-6.974 3.23-8.545 6.417a19.17 19.17 0 00-1.331 5.73c-.149 2.02.033 4.06.527 6.025.03-2.383.77-5.237 3.087-8.104 1.894-2.343 4.905-3.923 8.726-4.445 0 0-.006-.003.022-.007.858-.12 1.732-.183 2.638-.183 3.671 0 7.293.99 10.484 2.86 2.658 1.558 4.94 3.714 6.725 6.328a19.84 19.84 0 00-.624-2.169c-.965-2.76-3.054-6.693-7.517-9.75a18.236 18.236 0 00-6.835-2.837c-.021 1.988-1.664 3.6-3.68 3.6" fill="#9FC48F" mask="url(#b)"/><path d="M19.381 4.742c1.296 0 2.35-1.043 2.35-2.325 0-1.282-1.054-2.325-2.35-2.325s-2.35 1.043-2.35 2.325c0 1.282 1.054 2.325 2.35 2.325" fill="#9FC48F" mask="url(#b)"/><path d="M6.183 28.527c.491.843.622 1.824.367 2.764a3.616 3.616 0 01-1.505 2.08c2.561 2.59 5.743 4.01 9.01 4.01.722 0 1.449-.07 2.165-.21 3.468-.673 6.524-2.254 9.11-4.707-1.608.849-3.623 1.477-6.065 1.477-.754 0-1.535-.061-2.32-.179-2.153-.323-4.304-1.392-6.22-3.088-1.882-1.666-3.458-3.867-4.557-6.362a20.344 20.344 0 01-1.666-9.668A20.606 20.606 0 016.61 6.982c-.499.453-1.035.988-1.576 1.606A19.489 19.489 0 00.258 19.902a17.36 17.36 0 00.937 7.271 3.7 3.7 0 014.987 1.354" fill="#7FB069" mask="url(#b)"/><path d="M4.17 32.362a2.314 2.314 0 00.861-3.176 2.366 2.366 0 00-3.212-.852 2.314 2.314 0 00-.86 3.176 2.364 2.364 0 003.211.852" fill="#7FB069" mask="url(#b)"/><path d="M32.085 31.362a3.586 3.586 0 01.368-2.763 3.7 3.7 0 014.638-1.525c.071-.262.138-.526.196-.792.877-4.018.066-7.853-2.225-10.523-2.661-3.1-5.865-4.723-8.773-5.55 2.068 1.258 4.075 3.287 5.367 6.554 1.518 3.843.582 8.955-2.445 13.342a20.704 20.704 0 01-7.025 6.339c-2.698 1.485-5.654 2.344-8.804 2.56a20.32 20.32 0 005.966.907c2.921 0 5.787-.647 8.517-1.924a17.16 17.16 0 005.834-4.475 3.62 3.62 0 01-1.614-2.15" fill="#BFD7B4" mask="url(#b)"/><path d="M36.816 28.406a2.366 2.366 0 00-3.21.851 2.291 2.291 0 00-.236 1.765c.164.6.552 1.1 1.096 1.412a2.363 2.363 0 003.21-.852 2.314 2.314 0 00-.86-3.176" fill="#BFD7B4" mask="url(#b)"/></g></svg>